<?xml version="1.0" encoding="iso-8859-1"?>
<!-- Generator: Adobe Illustrator 16.0.0, SVG Export Plug-In . SVG Version: 6.00 Build 0)  -->
<!DOCTYPE svg PUBLIC "-//W3C//DTD SVG 1.1//EN" "http://www.w3.org/Graphics/SVG/1.1/DTD/svg11.dtd">
<svg version="1.1" id="Capa_1" xmlns="http://www.w3.org/2000/svg" xmlns:xlink="http://www.w3.org/1999/xlink" x="0px" y="0px"
	 width="15px" height="15px" viewBox="0 0 55.016 55.016" style="enable-background:new 0 0 55.016 55.016;"
	 xml:space="preserve">
<g>
	<path d="M52.994,16.448c-1.118-3.451-2.649-5.917-5.918-5.917h-1.551V7.912c0.022-2.925-2.353-5.383-6.603-4.758
		c-3.438,0.505-4.563,3.159-4.317,7.377H24.332V7.912c0.092-3.737-2.971-5.424-6.721-4.856c-4.05,0.614-4.312,3.258-4.198,7.476
		H8.085c-3.267,0-4.948,2.676-5.917,5.917c0,0-2.168,7.326-2.168,17.188C0,43.498,1.168,46.15,1.168,46.15
		c1.01,3.308,3.649,5.917,6.917,5.917h38.991c3.269,0,5.882-2.574,6.918-5.917c0,0,1.115-3.442,1.016-12.515
		C54.957,23.479,52.994,16.448,52.994,16.448z M21.209,14.105c0,1.249-1.019,2.268-2.268,2.268h-0.056
		c-1.252,0-2.267-1.019-2.267-2.268V7.381c0-1.249,1.016-2.268,2.267-2.268h0.056c1.249,0,2.268,1.019,2.268,2.268V14.105z
		 M42.301,14.293c0,1.249-1.018,2.269-2.268,2.269h-0.057c-1.252,0-2.268-1.02-2.268-2.269V7.568c0-1.249,1.017-2.269,2.268-2.269
		h0.057c1.25,0,2.268,1.02,2.268,2.269V14.293z"/>
	<path d="M22.902,40.135c0,1.586-0.54,2.381-1.621,2.381c-0.482,0-0.869-0.162-1.161-0.485s-0.438-0.801-0.438-1.434V29.824
		c-2.005,1.539-3.354,2.309-4.049,2.309c-0.332,0-0.625-0.132-0.882-0.396c-0.256-0.265-0.384-0.57-0.384-0.917
		c0-0.402,0.126-0.698,0.378-0.889c0.252-0.189,0.698-0.433,1.337-0.732c0.956-0.45,1.718-0.924,2.292-1.42
		c0.572-0.498,1.079-1.055,1.521-1.669c0.442-0.616,0.729-0.994,0.865-1.138c0.134-0.142,0.386-0.213,0.757-0.213
		c0.418,0,0.754,0.163,1.006,0.486c0.253,0.324,0.379,0.769,0.379,1.338V40.135z"/>
	<path d="M39.962,39.449c-0.513,0.938-1.253,1.685-2.22,2.238c-0.967,0.553-2.082,0.828-3.344,0.828
		c-1.414,0-2.56-0.261-3.438-0.782c-0.882-0.521-1.504-1.119-1.871-1.792c-0.367-0.676-0.55-1.267-0.55-1.771
		c0-0.308,0.128-0.6,0.384-0.876c0.256-0.277,0.579-0.414,0.965-0.414c0.663,0,1.156,0.382,1.479,1.148
		c0.314,0.702,0.74,1.25,1.279,1.641c0.535,0.391,1.135,0.586,1.799,0.586c0.606,0,1.14-0.159,1.598-0.474
		c0.458-0.316,0.811-0.75,1.061-1.302c0.247-0.553,0.372-1.181,0.372-1.884c0-0.757-0.134-1.404-0.403-1.94
		c-0.268-0.537-0.627-0.938-1.076-1.202c-0.45-0.265-0.952-0.397-1.504-0.397c-0.678,0-1.164,0.084-1.457,0.249
		c-0.291,0.165-0.713,0.455-1.26,0.87c-0.549,0.414-1,0.622-1.355,0.622c-0.387,0-0.73-0.14-1.03-0.42s-0.45-0.598-0.45-0.953
		c0-0.04,0.042-0.308,0.13-0.806l0.994-5.67c0.11-0.679,0.315-1.172,0.615-1.48c0.301-0.308,0.788-0.462,1.469-0.462h6.25
		c1.231,0,1.846,0.471,1.846,1.409c0,0.411-0.148,0.742-0.449,0.995c-0.299,0.252-0.742,0.378-1.326,0.378h-5.624l-0.675,3.835
		c1.121-0.599,2.154-0.898,3.102-0.898c0.758,0,1.467,0.142,2.125,0.427c0.659,0.284,1.238,0.677,1.734,1.177
		c0.498,0.502,0.889,1.096,1.173,1.782c0.283,0.687,0.425,1.424,0.425,2.214C40.73,37.467,40.475,38.51,39.962,39.449z"/>
</g>
<g>
</g>
<g>
</g>
<g>
</g>
<g>
</g>
<g>
</g>
<g>
</g>
<g>
</g>
<g>
</g>
<g>
</g>
<g>
</g>
<g>
</g>
<g>
</g>
<g>
</g>
<g>
</g>
<g>
</g>
</svg>
